<svg xmlns="http://www.w3.org/2000/svg" xmlns:xlink="http://www.w3.org/1999/xlink" width="686.445" height="492.391" viewBox="0 0 686.445 492.391">
  <defs>
    <clipPath id="clip-path">
      <path id="Rectangle_22" data-name="Rectangle 22" d="M0,37.662,686.445,0V492.391L0,454.729Z"/>
    </clipPath>
    <clipPath id="clip-path-2">
      <path id="Path_146" data-name="Path 146" d="M84.78,1.375c-1.541.265-2.863.519-3.994.757s-2.071.461-2.85.664-1.394.385-1.875.544-.828.292-1.067.4q-.4,1-.818,1.986t-.864,1.951q-.444.966-.91,1.915t-.955,1.877a42.015,42.015,0,0,0-2.1,4.246c-.619,1.418-1.168,2.8-1.679,4.016a23.719,23.719,0,0,1-1.454,3.034c-.469.764-.935,1.24-1.429,1.3-.645.081-1.5-.6-2.469-1.721a45.319,45.319,0,0,1-3.144-4.308c-1.095-1.643-2.2-3.383-3.23-4.886a21.84,21.84,0,0,0-2.732-3.465c-.493-.451-.876-.839-1.189-1.175s-.558-.623-.775-.872a8.147,8.147,0,0,0-.61-.647,3.547,3.547,0,0,0-.694-.5L32.78,8.035a7.77,7.77,0,0,0-2.1.63A9.02,9.02,0,0,0,28.76,9.873a10.842,10.842,0,0,0-1.686,1.73,12.958,12.958,0,0,0-1.381,2.2c-1.951,3.935-4.505,9.788-7.245,16.524S12.792,44.66,10.1,52.124,4.957,66.89,3.138,73.044.141,84.187.008,87.016A13.191,13.191,0,0,0,2.036,93.77a38.74,38.74,0,0,0,5.141,6.912,53.054,53.054,0,0,0,5.967,5.612,17.3,17.3,0,0,0,4.486,2.829c.4.127.881-1.053,1.387-2.925s1.039-4.436,1.552-7.073,1-5.349,1.427-7.516a27.244,27.244,0,0,1,1.011-4.249l-5.929-2.385q.75-2.2,1.562-4.358t1.684-4.281q.873-2.12,1.805-4.2t1.924-4.112c.187-.37.755-1.532,1.515-3.142s1.712-3.669,2.666-5.831,1.91-4.43,2.678-6.454a30.164,30.164,0,0,0,1.546-5q.152,1.74.26,3.486t.171,3.5q.063,1.75.081,3.5t-.008,3.508c-.043,1.424-.011,2.87.061,4.3s.185,2.855.3,4.231.241,2.705.335,3.955.158,2.419.158,3.474.138,2.687.308,4.661.373,4.29.5,6.713a71.87,71.87,0,0,1,.065,7.351,27.757,27.757,0,0,1-1,6.57c-.582,1.9-1.232,4.427-1.878,7.144s-1.289,5.626-1.86,8.3-1.068,5.1-1.422,6.867-.567,2.861-.567,2.861l59.524-.373s.173-1.828.446-4.752.647-6.946,1.048-11.332.829-9.139,1.212-13.524.72-8.4.938-11.319q-.083-1.34-.136-2.683t-.076-2.686q-.023-1.344-.016-2.689t.043-2.69c.058-3.627.106-7.362.139-10.965s.049-7.073.043-10.17-.034-5.82-.09-7.929a36.619,36.619,0,0,0-.261-4.241c-.193-1.021.789.2,2.436,2.748s3.962,6.423,6.43,10.7,5.1,8.979,7.36,13.152,4.169,7.833,5.189,10.033c.424.914-.711,2.019-2.681,3.206a67.243,67.243,0,0,1-7.673,3.7c-2.9,1.24-5.914,2.454-8.317,3.537s-4.194,2.032-4.668,2.746a4.661,4.661,0,0,0-.5,2.906A17.659,17.659,0,0,0,89.109,99c.361,1.182.781,2.275,1.112,3.073s.57,1.3.57,1.3,2.511-.412,6.279-1.156,8.816-1.825,13.862-3.16a88.315,88.315,0,0,0,13.909-4.7c3.795-1.769,6.306-3.71,6.245-5.735s-1.462-7.372-3.669-14.413-5.212-15.753-8.491-24.537-6.815-17.6-10.1-24.885-6.3-13.006-8.54-15.6c-1.391-1.615-2.344-2.7-3.044-3.454A10.912,10.912,0,0,0,95.715,4.3a4.893,4.893,0,0,0-1.122-.575,16.328,16.328,0,0,1-1.823-.857c-.485-.261-.833-.462-1.143-.621a4.674,4.674,0,0,0-.916-.37,8.215,8.215,0,0,0-1.285-.227c-.556-.064-1.272-.121-2.248-.191"/>
    </clipPath>
    <clipPath id="clip-path-3">
      <path id="Rectangle_20" data-name="Rectangle 20" d="M0,0,103.172.53V41.4L0,39.857Z"/>
    </clipPath>
    <clipPath id="clip-path-4">
      <path id="Rectangle_21" data-name="Rectangle 21" d="M0,.526,19.474,0V67.685L0,67.89Z"/>
    </clipPath>
  </defs>
  <g id="bg-6_1_" data-name="bg-6 (1)" transform="translate(-147.478 -43.623)">
    <g id="seat" transform="translate(379.729 190.198)">
      <path id="Path_65" data-name="Path 65" d="M1082.48,571.9a32.48,32.48,0,0,0,6.39-15c.92-6.65,3.33-15.13,9.43-20.94,9.27-8.85,10.64-46,10.83-59.78a52.842,52.842,0,0,1,2.43-15.34c2.77-8.71,8.44-20.77,19.44-26.59,11.21-5.93,47-8.36,57.44.33,21.25,17.73,18.28,41,18.61,44.69,1.61,17.42.62,30.13,9.48,41.06s18.88,24.3,16.27,37.84,20.7,33.51-4.81,41.84-51.58,14.09-80,11.82c-25.18-2-59.61-6.09-66.38-22.75C1078.25,580.75,1079.94,575.28,1082.48,571.9Z" transform="translate(-1067.129 -428.905)" fill="#646262"/>
      <path id="Path_66" data-name="Path 66" d="M1088.83,569.73c1.18-1.7,2.71-4.24,5.43-5.57s8.17-5.23,35.05,5.85c38.39,15.83,70-3.48,73-3.86s30.11-8.88,29.36,8.88-32.75,27.42-42.53,27.81-50.06,4.25-70-1.54-27.53-13.43-28.88-15.33C1088.78,583.89,1083.85,576.89,1088.83,569.73Z" transform="translate(-1067.129 -428.905)" fill="#777"/>
      <path id="Path_67" data-name="Path 67" d="M1233.16,698.94h-1.37a6.72,6.72,0,0,1-6.85-6.84l.15-8.53a2.56,2.56,0,0,1,1.6-2.33l.63-.25a2.55,2.55,0,0,0,.57-4.43,6.2,6.2,0,0,0-1.33-.68c-4.17-1.58-13-6.71-36.17-9.08-12.64-1.29-19.14-1.71-22.44-1.83a2.56,2.56,0,0,1-2.37-3.25h0a2.56,2.56,0,0,1,2.77-1.85c8.17,1,37.09,4.53,46.51,6.75a55.659,55.659,0,0,1,15.83,6.72,7.46,7.46,0,0,1,3.41,5.45,2.55,2.55,0,0,0,1.1,1.89,13.278,13.278,0,0,0,3,1.56c1.58.53,1.53,6.14,1.22,10.68a6.44,6.44,0,0,1-6.26,6.02Z" transform="translate(-1067.129 -428.905)" fill="#777"/>
      <path id="Path_68" data-name="Path 68" d="M1158.54,615.91l-.2,75.71a1.8,1.8,0,0,1-1.8,1.8h-.4a1.8,1.8,0,0,0-1.8,1.85l.32,12.78a5.87,5.87,0,0,0,5.77,5.72l4,.06a6,6,0,0,0,6.11-6.24l-.46-12.43a1.8,1.8,0,0,0-1.8-1.74h0a1.8,1.8,0,0,1-1.8-1.81l.21-77.64a1.8,1.8,0,0,0-1.82-1.81h-4.59a1.8,1.8,0,0,0-1.79,1.88Z" transform="translate(-1067.129 -428.905)" fill="#777"/>
      <path id="Path_69" data-name="Path 69" d="M1158.6,670.79s-61.17,24.63-70.82,32.8-11.23,13.34-10.79,15.53c0,.23.37.4.84.51a5.38,5.38,0,0,1,3.93,5.35l-.22,12.88a3.65,3.65,0,0,1-3.64,3.58H1071a3.65,3.65,0,0,1-3.65-3.59l-.22-12.8a5.45,5.45,0,0,1,4.62-5.49h.12s2.4-9.68,6.11-13,10.22-10.73,35.83-21.87,44.77-18.16,44.77-18.16Z" transform="translate(-1067.129 -428.905)" fill="#777"/>
      <path id="Path_70" data-name="Path 70" d="M1166.38,669.84a2,2,0,0,0,1.23,1.87c8.4,3.6,57.22,24.71,65.56,32.17,9.13,8.17,10.62,13.34,10.21,15.53-.09.5-1.44.7-2.65.77a2,2,0,0,0-1.9,2.07l.22,13.66a5.93,5.93,0,0,0,5.93,5.84h1.73a5.88,5.88,0,0,0,5.88-5.781l.23-13.609a2,2,0,0,0-1.71-2l-1.51-.25a2,2,0,0,1-1.64-1.47c-.74-2.73-2.73-9.17-5.46-11.77-3.51-3.34-9.67-10.73-33.91-21.87-18.57-8.53-33.47-14.63-39.41-17a2,2,0,0,0-2.79,1.9Z" transform="translate(-1067.129 -428.905)" fill="#777"/>
    </g>
  </g>
  <g id="Mask_Group_1" data-name="Mask Group 1" clip-path="url(#clip-path)">
    <path id="Path_140" data-name="Path 140" d="M11.72,14.167s-.734.875-1.836,2.279-2.567,3.335-4.033,5.45a60.489,60.489,0,0,0-4.025,6.548A13.729,13.729,0,0,0,0,34.037c0,1.479.126,3.564.374,6.005s.62,5.238,1.111,8.137,1.1,5.9,1.831,8.76A58.565,58.565,0,0,0,5.851,64.81c.961,2.308,3.159,8.423,5.962,16.392s6.224,17.822,9.615,27.561c3.4,9.755,6.767,19.406,9.471,26.968s4.743,13.045,5.464,14.424c.124.239.858.206,1.889.023s2.362-.518,3.677-.882,2.617-.759,3.59-1.063,1.617-.516,1.617-.516-.3-1.815-.759-4.641-1.083-6.658-1.731-10.7-1.321-8.275-1.883-11.914-1.015-6.677-1.22-8.313-1.1-5.3-2.333-9.922-2.79-10.21-4.324-15.707-3.039-10.9-4.161-15.164a59.241,59.241,0,0,1-1.861-8.344,11.6,11.6,0,0,1,.421-3.062A11.054,11.054,0,0,1,30.7,56.808a10.114,10.114,0,0,1,2.65-2.725,11.768,11.768,0,0,1,4.118-1.791c1.645-.385,3.753-.8,6.068-1.168s4.844-.7,7.322-.9a54.9,54.9,0,0,1,7.035-.2,15.1,15.1,0,0,1,5.189.96,28.562,28.562,0,0,0,6.317,1.4c2.789.417,6.084.828,9.347,1.368A56.635,56.635,0,0,1,87.915,55.9c2.666.936,4.755,2.137,5.722,3.737a7.133,7.133,0,0,1,1,3.349,20,20,0,0,1-.392,4.5c-.312,1.8-.779,3.955-1.327,6.625s-1.175,5.854-1.807,9.715A116.828,116.828,0,0,0,89.877,96.2c-.23,4.282-.322,8.613-.4,12.666s-.144,7.829-.321,11a32.956,32.956,0,0,1-.991,7.375,33.367,33.367,0,0,0-1.176,6.006c-.266,2.255-.413,4.649-.462,6.843a55.024,55.024,0,0,0,.125,5.641c.126,1.453.328,2.367.587,2.4.7.083,1.71.216,2.834.357s2.37.291,3.552.408,2.3.2,3.177.213a3.339,3.339,0,0,0,1.7-.229,21.283,21.283,0,0,0,2.1-4.434c.981-2.428,2.173-5.591,3.366-8.841s2.387-6.59,3.37-9.365,1.757-4.988,2.107-5.984c.554-1.566,1.407-4.9,2.389-9.148s2.093-9.435,3.162-14.7,2.1-10.612,2.91-15.2,1.413-8.409,1.627-10.621.641-4.872,1.148-7.686,1.1-5.786,1.63-8.621,1.016-5.532,1.31-7.8a18.994,18.994,0,0,0,.187-5.215c-.214-1.111-1.551-3.654-3.655-6.9a118.834,118.834,0,0,0-8.243-11.123,91.141,91.141,0,0,0-10.674-10.985c-3.722-3.156-7.5-5.576-10.976-6.546A131.968,131.968,0,0,0,75.487,2.857C69.476,1.97,62.723,1.2,56.263.681A168.584,168.584,0,0,0,38.835.055C34.006.2,30.474.74,29.247,1.823s-2.938,2.4-4.815,3.76-3.914,2.77-5.8,4.042-3.612,2.407-4.869,3.224S11.72,14.167,11.72,14.167Z" transform="translate(262.84 247.739)" fill="#464651"/>
    <g id="Group_8" data-name="Group 8" transform="translate(298.547 392.52)">
      <path id="Path_141" data-name="Path 141" d="M18.981.695,8.626.448s-.28.651-.734,1.715S6.808,4.7,6.11,6.353s-1.465,3.472-2.2,5.23-1.425,3.451-1.98,4.841c-.035.089-.086.212-.147.356s-.133.309-.209.483l-.235.536c-.079.18-.156.356-.225.517q-.129.365-.242.738t-.209.756q-.1.382-.176.771t-.142.785A31.156,31.156,0,0,0,0,25.39a21.928,21.928,0,0,0,.242,3.77,15.736,15.736,0,0,0,.921,3.424,12.48,12.48,0,0,0,1.692,2.987c.77,1,1.492,1.966,2.217,2.8a9.246,9.246,0,0,0,2.237,1.976,3.849,3.849,0,0,0,2.564.521,7.007,7.007,0,0,0,3.2-1.571,19.081,19.081,0,0,0,2.992-2.8,11.245,11.245,0,0,0,1.881-3.208,18.006,18.006,0,0,0,.994-4.291,55.048,55.048,0,0,0,.332-6.056c.025-2.388.022-4.974,0-7.508s-.054-5.019-.093-7.2-.08-4.072-.112-5.412S19.02.676,19.02.676" transform="translate(43.739 0.857)" fill="#08080a"/>
      <path id="Path_142" data-name="Path 142" d="M10.522.386l-9.217,5.1s-.053.742-.138,1.952S.968,10.327.843,12.2s-.259,3.943-.38,5.934S.234,22.04.161,23.6c0,.1-.007.243-.017.407s-.026.354-.042.553-.035.409-.052.614-.034.407-.047.591q-.007.4,0,.8t.038.8q.027.4.072.8t.106.8a30.763,30.763,0,0,0,.9,3.879A19.623,19.623,0,0,0,2.458,36.2,12.459,12.459,0,0,0,4.3,38.873,8.912,8.912,0,0,0,6.69,40.745c.982.519,1.912,1.034,2.8,1.422a6.772,6.772,0,0,0,2.576.66,3.755,3.755,0,0,0,2.427-.848,9.348,9.348,0,0,0,2.358-3.1,25.963,25.963,0,0,0,1.8-4.133,14.311,14.311,0,0,0,.7-3.932,19.571,19.571,0,0,0-.414-4.462,52.874,52.874,0,0,0-1.53-5.723c-.7-2.2-1.475-4.564-2.252-6.876S13.608,9.183,12.921,7.2s-1.287-3.688-1.715-4.9S10.522.376,10.522.376"/>
    </g>
    <path id="Path_143" data-name="Path 143" d="M6.582,48.316,35.81,39.869s.154-1.012.373-2.575.5-3.676.765-5.878.5-4.493.626-6.41a17.113,17.113,0,0,0-.042-4.168c-.185-.707-.366-1.628-.6-2.64a26.514,26.514,0,0,0-.913-3.181,11.522,11.522,0,0,0-1.556-2.976,6.123,6.123,0,0,0-2.528-2.024c-1.041-.433-2.17-1.7-3.5-3.159a25.17,25.17,0,0,0-4.674-4.293,9.15,9.15,0,0,0-6.488-1.556C14.742,1.373,11.8,2.834,8.347,6.03A26.354,26.354,0,0,0,1.541,15.6,21.622,21.622,0,0,0,.008,24.224a22.9,22.9,0,0,0,1.045,6.241A16.1,16.1,0,0,0,2,32.871Z" transform="translate(304.72 50.09)"/>
    <path id="Path_144" data-name="Path 144" d="M31.015.852,28.682,2.138c-1.419.783-3.344,1.847-5.37,2.971s-4.15,2.306-5.974,3.329-3.346,1.886-4.169,2.373a8.441,8.441,0,0,0-2.18,1.954,15.752,15.752,0,0,0-1.587,2.4A21.322,21.322,0,0,0,8.431,17.2c-.218.528-.329.859-.329.859a1.116,1.116,0,0,0-.253-.132.8.8,0,0,0-.556-.018,1.027,1.027,0,0,0-.556.659,5.483,5.483,0,0,0-.253,1.9,33.14,33.14,0,0,0,.225,3.384c.141,1.3.34,2.711.569,4.075s.489,2.68.752,3.781a14.25,14.25,0,0,0,.775,2.5q.633,1.295,1.237,2.613t1.181,2.661Q11.8,40.83,12.346,42.2t1.065,2.752a15.541,15.541,0,0,1,.721,3.043,28.064,28.064,0,0,1,.26,3.258c.027,1.064,0,2.078-.05,2.956s-.13,1.62-.21,2.14a41.933,41.933,0,0,1-2.47,6.593C10.306,66.082,8.556,69.906,6.827,73.6s-3.435,7.265-4.71,9.91S0,87.878,0,87.878l5,7.6,5.613,6.427L50.506,97.1s-.876-2.224-2.224-5.652-3.165-8.052-5.049-12.862S39.4,68.788,37.788,64.631s-2.891-7.482-3.435-8.973a8.762,8.762,0,0,1-.4-2.628,30.134,30.134,0,0,1,.13-3.428c.1-1.2.258-2.425.422-3.559s.336-2.177.48-3.019c.13-.771.3-1.592.5-2.408s.424-1.628.669-2.38a17.734,17.734,0,0,1,.78-2.021,5.2,5.2,0,0,1,.83-1.33,6.757,6.757,0,0,0,.949-1.51,23.822,23.822,0,0,0,1-2.35,24.874,24.874,0,0,0,.8-2.544,9.3,9.3,0,0,0,.324-2.089c0-.549.02-1.394.028-2.324s0-1.945-.046-2.832A7.429,7.429,0,0,0,40.5,19.17c-.172-.419-.421-.5-.78-.022-.1.127-.288-.018-.531-.359a9.857,9.857,0,0,1-.833-1.528,21.215,21.215,0,0,1-.863-2.234,17.621,17.621,0,0,1-.621-2.475,27.076,27.076,0,0,0-.907-3.383,24.7,24.7,0,0,0-1.3-3.115,22.042,22.042,0,0,0-1.661-2.791A19.373,19.373,0,0,0,31.015.852Z" transform="translate(300.884 64.63)" fill="#6a3728"/>
    <path id="Path_145" data-name="Path 145" d="M21.581,80.6s-.234-1.534-.6-3.927-.869-5.643-1.4-9.075-1.1-7.045-1.6-10.165-.933-5.747-1.2-7.208c-.3-1.666-1.135-4.8-2.233-8.722s-2.461-8.622-3.83-13.428S7.97,18.362,6.849,14.031,4.861,5.947,4.5,3.44C4.159,1.026,3.642.033,3.08.046S1.911,1.078,1.386,2.686a30.529,30.529,0,0,0-1.2,6.176,32.163,32.163,0,0,0,.044,7.226,64.1,64.1,0,0,0,1.8,8.11c.83,3.014,1.825,6.253,2.8,9.459s1.916,6.382,2.645,9.264a41.142,41.142,0,0,1,1.341,7.513,30.163,30.163,0,0,0,2.162,8.143c1.215,3.206,2.8,6.719,4.368,9.979s3.132,6.272,4.3,8.467S21.581,80.6,21.581,80.6Z" transform="translate(287.162 307.315)" opacity="0.1"/>
    <g id="Group_9" data-name="Group 9" transform="translate(262.159 121.63)" clip-path="url(#clip-path-2)">
      <path id="Rectangle_19" data-name="Rectangle 19" d="M0,4.015,131.706,0V131.365L0,131.255Z" transform="translate(-0.377 -3.299)" fill="#3a3a3a"/>
    </g>
    <path id="Path_147" data-name="Path 147" d="M1.636,18.767a.923.923,0,0,0-.69-.447,5.333,5.333,0,0,1-.7-.1c-.182-.067-.285-.211-.229-.57a7.5,7.5,0,0,1,.726-1.855,14.755,14.755,0,0,0,1.333-5.017A26.015,26.015,0,0,0,2.05,5.765a34.369,34.369,0,0,0-.594-3.851C1.251.952,1.082.375,1.082.375a4.267,4.267,0,0,0,.32.643,5.973,5.973,0,0,0,1.1,1.359,5.685,5.685,0,0,0,2.1,1.22,7.344,7.344,0,0,0,3.315.226c1.332-.186,2.389-.457,3.132-.627s1.174-.241,1.253-.027-.191.713-.85,1.681-1.7,2.4-3.17,4.49S5.614,12.976,4.645,14.15s-1.7,1.971-2.223,2.55a5.481,5.481,0,0,0-.958,1.237.835.835,0,0,0,.157.87" transform="translate(313.206 108.442)" opacity="0.07"/>
    <g id="Group_14" data-name="Group 14" transform="translate(268.588 135.122)">
      <g id="Group_11" data-name="Group 11" transform="translate(0 131.961)" opacity="0.07">
        <g id="Group_10" data-name="Group 10" clip-path="url(#clip-path-3)">
          <path id="Path_148" data-name="Path 148" d="M0,1.7,83.414.4s-1.116.747-2.748,1.967-3.776,2.91-5.837,4.8a32.852,32.852,0,0,0-5.33,5.986c-1.3,2.012-1.914,3.953-1.26,5.554a11.842,11.842,0,0,1-1.652,11.851,11.614,11.614,0,0,1-4.862,3.631,12.158,12.158,0,0,1-6.6.617,46.787,46.787,0,0,1-5.049-1.154c-1.38-.4-2.509-.79-3.541-1.123a19.672,19.672,0,0,0-2.958-.764,12.511,12.511,0,0,0-3.293-.078c-3.251.322-6.244.494-8.923.53a57.877,57.877,0,0,1-7.038-.286,21,21,0,0,1-4.839-1.014,4.018,4.018,0,0,1-2.324-1.658C14.509,23.835,12.111,19.4,10.006,15.8S6.093,9.436,4.614,7.347a55.139,55.139,0,0,0-3.4-4.392A16.577,16.577,0,0,0,.022,1.7" transform="translate(11.455 -1.349)"/>
        </g>
      </g>
      <g id="Group_13" data-name="Group 13" transform="translate(25.195 0)" opacity="0.07">
        <g id="Group_12" data-name="Group 12" clip-path="url(#clip-path-4)">
          <path id="Path_149" data-name="Path 149" d="M4.789,3.006c.354.835.7,1.577,1.019,2.266a19.9,19.9,0,0,1,.8,1.947,7.009,7.009,0,0,1,.376,1.87,6.151,6.151,0,0,1-.248,2.032A29.36,29.36,0,0,0,5.8,15.6a20.141,20.141,0,0,0-.062,4.637,15.277,15.277,0,0,0,1.209,4.565,14.957,14.957,0,0,0,2.879,4.266,10.444,10.444,0,0,1,1.948,3.018,29.227,29.227,0,0,1,1.105,3.1,11.952,11.952,0,0,0,.95,2.418,1.712,1.712,0,0,0,1.484.985c.511.392.519.66.245.842a3.517,3.517,0,0,1-1.454.325c-.621.047-1.306.045-1.835.032s-.9-.039-.9-.039l-5.974.063-3.763-.239c.011-.276-.054-1.4-.158-2.955s-.245-3.551-.387-5.572S.8,26.975.7,25.306.533,22.349.546,21.849c.047-1.762.089-3.342.118-4.769s.047-2.7.045-3.85-.023-2.175-.07-3.105S.518,8.359.411,7.59C.223,6.29.1,5.437.037,4.832A3.453,3.453,0,0,1,.075,3.557a4.2,4.2,0,0,1,.5-.99,18.993,18.993,0,0,0,1-1.907A.547.547,0,0,1,2.243.3a2.241,2.241,0,0,1,.913.591,8.847,8.847,0,0,1,.932,1.067,12.632,12.632,0,0,1,.723,1.063" transform="translate(0.798 27.984)"/>
        </g>
      </g>
    </g>
  </g>
  <g id="table" transform="translate(-48.957 -76.695)">
    <path id="Path_72" data-name="Path 72" d="M705.05,379.14l.92,179.1h20l.44-178.37Z" transform="translate(-168.341)" fill="#080030"/>
    <path id="Path_73" data-name="Path 73" d="M103.97,361.24v21l519.659-2v-18Z" fill="#949494"/>
    <path id="Path_74" data-name="Path 74" d="M103.97,361.24l37.011-15,440.351,1,42.3,15Z" fill="#080030"/>
    <path id="Path_75" data-name="Path 75" d="M416.45,355.43l11.53-7.02,53.1-.35-8.01,6.82Z" transform="translate(-84.385)" fill="#f8f8ff"/>
    <path id="Path_138" data-name="Path 138" d="M705.971,379.878V560.24h20.021l.44-180.362Z" transform="translate(-540.363 2.362)" fill="#080030"/>
  </g>
  <path id="Path_150" data-name="Path 150" d="M4,0H191a4,4,0,0,1,4,4v97a4,4,0,0,1-4,4H4a4,4,0,0,1-4-4V4A4,4,0,0,1,4,0Z" transform="translate(226.548 174.297)" fill="#1b1e24"/>
  <text id="_" data-name="&lt;/&gt;" transform="translate(303.548 235.297)" fill="#9e9b9b" font-size="20" font-family="SegoeUI-Bold, Segoe UI" font-weight="700"><tspan x="0" y="0">&lt;/&gt;</tspan></text>
</svg>
